<svg width="88" height="88" viewBox="0 0 88 88" fill="none" xmlns="http://www.w3.org/2000/svg">
<path d="M84.9018 43.9989C86.2608 42.4163 87.2132 40.526 87.6763 38.4919C88.1394 36.4579 88.0992 34.3416 87.5592 32.3267C87.0193 30.3117 85.9959 28.4589 84.5777 26.929C83.1596 25.3991 81.3896 24.2383 79.4213 23.5473C79.807 21.4971 79.6866 19.3838 79.0705 17.3906C78.4545 15.3975 77.3615 13.5848 75.8863 12.1098C74.411 10.6347 72.5982 9.54192 70.605 8.92614C68.6118 8.31037 66.4984 8.19024 64.4483 8.57616C63.7578 6.60741 62.5972 4.83693 61.0673 3.41846C59.5374 1.99999 57.6844 0.9764 55.6691 0.436553C53.6538 -0.103294 51.5373 -0.143075 49.5031 0.320662C47.469 0.784399 45.5788 1.73764 43.9967 3.09762C42.414 1.73857 40.5237 0.786194 38.4897 0.323098C36.4557 -0.139999 34.3394 -0.0998253 32.3244 0.440132C30.3094 0.980089 28.4566 2.00352 26.9267 3.42165C25.3968 4.83978 24.2361 6.60976 23.5451 8.57807C21.495 8.19276 19.3819 8.31344 17.389 8.92962C15.3962 9.54581 13.5837 10.6389 12.1089 12.1141C10.6341 13.5893 9.5415 15.402 8.92582 17.395C8.31014 19.388 8.19001 21.5012 8.57584 23.5511C6.60753 24.2421 4.83754 25.4029 3.41941 26.9328C2.00128 28.4627 0.977843 30.3155 0.437886 32.3305C-0.102072 34.3454 -0.142251 36.4617 0.320846 38.4958C0.783942 40.5298 1.73634 42.4201 3.09538 44.0027C1.73593 45.5853 0.783236 47.4757 0.320008 49.51C-0.143221 51.5442 -0.103006 53.6607 0.437188 55.6759C0.977381 57.691 2.00121 59.5439 3.41983 61.0737C4.83844 62.6035 6.60898 63.7639 8.57775 64.4543C8.19159 66.5043 8.31158 68.6176 8.92733 70.6107C9.54309 72.6039 10.636 74.4166 12.1112 75.8916C13.5863 77.3666 15.3992 78.4592 17.3924 79.0747C19.3856 79.6902 21.4989 79.8099 23.5489 79.4235C24.2399 81.3918 25.4007 83.1618 26.9306 84.58C28.4605 85.9981 30.3133 87.0215 32.3282 87.5615C34.3432 88.1014 36.4595 88.1416 38.4935 87.6785C40.5275 87.2154 42.4179 86.263 44.0005 84.904C45.5831 86.2634 47.4735 87.2161 49.5077 87.6794C51.542 88.1426 53.6585 88.1024 55.6736 87.5622C57.6888 87.022 59.5417 85.9981 61.0715 84.5795C62.6012 83.1609 63.7617 81.3904 64.4521 79.4216C66.5022 79.8077 68.6155 79.6876 70.6086 79.0718C72.6018 78.4561 74.4146 77.3632 75.8897 75.8881C77.3648 74.413 78.4577 72.6002 79.0734 70.6071C79.6892 68.6139 79.8092 66.5006 79.4232 64.4505C81.3917 63.7597 83.1618 62.5989 84.58 61.0689C85.9982 59.539 87.0216 57.6861 87.5614 55.6709C88.1012 53.6558 88.1411 51.5394 87.6776 49.5054C87.2141 47.4714 86.2613 45.5812 84.9018 43.9989V43.9989Z" fill="#0C4E68"/>
<path d="M36.1001 60.795L23.873 48.5755C23.409 48.1107 23.1483 47.4808 23.1483 46.824C23.1483 46.1672 23.409 45.5373 23.873 45.0725L25.3585 43.5851C25.8233 43.1211 26.4532 42.8604 27.11 42.8604C27.7667 42.8604 28.3967 43.1211 28.8615 43.5851L37.7496 52.4675L58.6817 30.2234C59.1321 29.7455 59.7538 29.4658 60.4102 29.4458C61.0666 29.4258 61.7041 29.6671 62.1828 30.1166L63.7083 31.5563C64.1868 32.0068 64.4668 32.6289 64.4868 33.2857C64.5069 33.9426 64.2653 34.5805 63.8151 35.0593L39.6622 60.7397C39.4348 60.982 39.161 61.1762 38.857 61.3106C38.5531 61.445 38.2252 61.517 37.8929 61.5221C37.5606 61.5273 37.2306 61.4656 36.9226 61.3407C36.6146 61.2157 36.3349 61.0302 36.1001 60.795Z" fill="white"/>
</svg>
